<svg viewBox="0 0 320 29.1" xmlns="http://www.w3.org/2000/svg"><g fill="#fff"><path d="m29.86 21.28v-3.22c-.35.05-.7.08-1.07.08-3.57 0-6.56-2.51-7.29-5.87h6.23v-3.2h-6.23c.73-3.35 3.72-5.87 7.29-5.87.36 0 .72.03 1.07.08v-3.23c-.35-.03-.71-.05-1.07-.05-5.88 0-10.66 4.78-10.66 10.67s4.77 10.67 10.66 10.67c.36 0 .72-.02 1.07-.05z"/><path d="m0 10.67c0 5.89 4.77 10.67 10.66 10.67.38 0 .76-.02 1.14-.06v-3.23c-.37.06-.75.09-1.14.09-4.12 0-7.47-3.34-7.47-7.47s3.34-7.47 7.47-7.47c.39 0 .77.03 1.14.09v-3.23c-.37-.04-.75-.06-1.14-.06-5.89 0-10.66 4.78-10.66 10.67z"/><path d="m290.05.03h-22.9v21.3h4.45v-8.81h6v-3.82h-6v-4.88h18c.79 0 1.57.16 2.31.45.69.29 1.3.75 1.77 1.34.48.63.82 1.36 1 2.13.22.92.32 1.87.31 2.82.01.96-.11 1.92-.36 2.85-.21.8-.58 1.55-1.09 2.2-.53.64-1.22 1.13-2 1.42-.96.36-1.98.52-3 .49h-2.81v-8.78h-4.45v12.57h7.26c1.58.02 3.15-.21 4.65-.69 2.62-.82 4.71-2.81 5.65-5.39.53-1.49.79-3.07.76-4.65 0-3.48-.91-6.11-2.73-7.88-1.87-1.7-4.3-2.64-6.83-2.63"/><path d="m307.77 0h4.23l8 21.31h-4.6l-5.4-16.24-2.59 7.64h2.91l1.06 3.68h-5.14l-1.7 4.92h-4.77z"/><path d="m63.34 21.31v-17.18h2.27v17.18z"/><path d="m68.85 15.79 2.14-.19c.1.86.34 1.56.71 2.12s.95 1 1.73 1.34 1.66.51 2.64.51c.87 0 1.63-.13 2.3-.39s1.16-.61 1.48-1.06.49-.94.49-1.47-.16-1.01-.47-1.41-.83-.74-1.55-1.01c-.46-.18-1.48-.46-3.06-.84s-2.68-.74-3.32-1.07c-.82-.43-1.43-.96-1.83-1.6s-.6-1.35-.6-2.14c0-.87.25-1.68.74-2.43s1.21-1.33 2.16-1.72 2-.59 3.15-.59c1.27 0 2.4.21 3.37.62s1.72 1.01 2.24 1.81.8 1.7.84 2.71l-2.18.16c-.12-1.09-.51-1.91-1.19-2.46s-1.67-.83-2.99-.83-2.38.25-3.01.76-.94 1.11-.94 1.82c0 .62.22 1.12.67 1.52.44.4 1.58.81 3.43 1.22s3.12.78 3.8 1.1c1 .46 1.74 1.04 2.21 1.75s.71 1.52.71 2.44-.26 1.78-.79 2.58-1.28 1.44-2.26 1.89-2.08.67-3.31.67c-1.55 0-2.86-.23-3.91-.68s-1.88-1.13-2.47-2.04-.91-1.94-.94-3.09z"/><path d="m84.94 12.94c0-2.85.77-5.08 2.3-6.7s3.51-2.42 5.93-2.42c1.59 0 3.02.38 4.29 1.14s2.24 1.81 2.91 3.17 1 2.89 1 4.61-.35 3.3-1.05 4.68-1.7 2.42-2.99 3.12-2.68 1.06-4.17 1.06c-1.62 0-3.06-.39-4.34-1.17s-2.24-1.85-2.89-3.2-.98-2.78-.98-4.29zm2.34.04c0 2.07.56 3.7 1.67 4.89s2.51 1.79 4.19 1.79 3.12-.6 4.22-1.8 1.66-2.91 1.66-5.12c0-1.4-.24-2.62-.71-3.66s-1.16-1.85-2.07-2.43-1.93-.86-3.06-.86c-1.61 0-2.99.55-4.15 1.66s-1.74 2.95-1.74 5.54z"/><path d="m118.05 21.31h-2.11v-13.44c-.51.48-1.17.97-2 1.45s-1.56.85-2.22 1.09v-2.04c1.18-.55 2.21-1.23 3.09-2.02s1.51-1.55 1.88-2.3h1.36v17.25z"/><path d="m123.47 16.78 2.11-.28c.24 1.2.65 2.06 1.24 2.58s1.29.79 2.13.79c.99 0 1.83-.34 2.51-1.03s1.03-1.54 1.03-2.55-.32-1.77-.95-2.4-1.44-.94-2.41-.94c-.4 0-.89.08-1.49.23l.23-1.85c.14.02.25.02.34.02.9 0 1.71-.23 2.43-.7s1.08-1.19 1.08-2.17c0-.77-.26-1.41-.79-1.92s-1.2-.76-2.03-.76-1.5.26-2.05.77-.9 1.29-1.05 2.32l-2.11-.38c.26-1.41.84-2.51 1.76-3.29s2.05-1.17 3.41-1.17c.94 0 1.8.2 2.59.6s1.39.95 1.81 1.65.63 1.43.63 2.21-.2 1.42-.6 2.03-.99 1.09-1.77 1.45c1.02.23 1.8.72 2.37 1.46s.84 1.66.84 2.77c0 1.5-.55 2.77-1.64 3.81s-2.48 1.56-4.15 1.56c-1.51 0-2.76-.45-3.76-1.35s-1.56-2.06-1.71-3.49z"/><path d="m143.57 21.31v-4.11h-7.45v-1.93l7.84-11.13h1.72v11.13h2.32v1.93h-2.32v4.11zm0-6.05v-7.75l-5.38 7.75z"/><path d="m153.4 11.99c-.88-.32-1.52-.78-1.95-1.37s-.63-1.3-.63-2.13c0-1.25.45-2.3 1.35-3.15s2.09-1.28 3.59-1.28 2.71.44 3.62 1.31 1.37 1.93 1.37 3.18c0 .8-.21 1.49-.63 2.08s-1.05 1.04-1.9 1.37c1.05.34 1.86.9 2.41 1.66s.83 1.68.83 2.74c0 1.47-.52 2.7-1.56 3.7s-2.41 1.5-4.1 1.5-3.06-.5-4.1-1.51-1.56-2.26-1.56-3.76c0-1.12.28-2.05.85-2.81s1.37-1.27 2.42-1.54zm-1.1 4.36c0 .6.14 1.18.43 1.75s.71 1 1.27 1.31 1.17.46 1.82.46c1.01 0 1.84-.32 2.5-.97s.98-1.47.98-2.47-.34-1.86-1.01-2.52-1.52-1-2.54-1-1.81.33-2.47.98-.98 1.48-.98 2.46zm.68-7.93c0 .81.26 1.48.79 1.99s1.2.77 2.04.77 1.48-.26 2-.77.78-1.14.78-1.88-.27-1.42-.8-1.95-1.2-.79-2-.79-1.47.26-2 .77-.8 1.13-.8 1.85z"/><path d="m163.5 16.81 2.21-.19c.16 1.08.54 1.89 1.14 2.43s1.32.81 2.16.81c1.02 0 1.88-.38 2.58-1.15s1.05-1.78 1.05-3.05-.34-2.15-1.01-2.85-1.56-1.04-2.65-1.04c-.68 0-1.29.15-1.84.46s-.98.71-1.29 1.2l-1.98-.26 1.66-8.82h8.54v2.02h-6.86l-.93 4.62c1.03-.72 2.11-1.08 3.25-1.08 1.5 0 2.77.52 3.8 1.56s1.55 2.38 1.55 4.01-.45 2.9-1.36 4.03c-1.1 1.39-2.61 2.09-4.51 2.09-1.56 0-2.84-.44-3.83-1.31s-1.55-2.04-1.69-3.48z"/><path d="m178.02 11.27v-2.4h2.4v2.4zm0 10.04v-2.4h2.4v2.4z"/><path d="m194.6 19.28v2.03h-11.36c-.02-.51.07-1 .25-1.46.29-.77.75-1.54 1.39-2.29s1.56-1.62 2.76-2.6c1.87-1.53 3.13-2.74 3.79-3.64.66-.89.98-1.74.98-2.54 0-.84-.3-1.54-.9-2.12s-1.38-.86-2.34-.86c-1.02 0-1.83.3-2.44.91s-.92 1.45-.93 2.53l-2.17-.22c.15-1.62.71-2.85 1.68-3.7s2.27-1.27 3.9-1.27 2.95.46 3.91 1.37 1.44 2.05 1.44 3.4c0 .69-.14 1.36-.42 2.03s-.75 1.36-1.4 2.1-1.74 1.74-3.25 3.02c-1.27 1.06-2.08 1.78-2.44 2.16s-.66.76-.89 1.14h8.43z"/><path d="m196.86 12.84c0-2.03.21-3.67.63-4.9s1.04-2.19 1.86-2.87 1.86-1.01 3.11-1.01c.92 0 1.73.19 2.43.56s1.27.91 1.72 1.61.81 1.55 1.07 2.55.39 2.36.39 4.06c0 2.02-.21 3.64-.62 4.88s-1.03 2.2-1.86 2.87-1.87 1.01-3.12 1.01c-1.66 0-2.96-.59-3.9-1.78-1.13-1.43-1.7-3.76-1.7-6.98zm2.17 0c0 2.82.33 4.7.99 5.63s1.47 1.4 2.44 1.4 1.78-.47 2.44-1.41.99-2.81.99-5.62-.33-4.71-.99-5.64-1.48-1.39-2.47-1.39-1.74.41-2.32 1.23c-.73 1.05-1.09 2.98-1.09 5.8z"/><path d="m218.16 21.31h-2.11v-13.44c-.51.48-1.17.97-2 1.45s-1.56.85-2.22 1.09v-2.04c1.18-.55 2.21-1.23 3.09-2.02s1.51-1.55 1.88-2.3h1.36v17.25z"/><path d="m234.5 8.34-2.1.16c-.19-.83-.45-1.43-.8-1.8-.57-.6-1.27-.9-2.11-.9-.67 0-1.26.19-1.77.56-.66.48-1.19 1.19-1.57 2.12s-.58 2.25-.6 3.97c.51-.77 1.13-1.35 1.86-1.72s1.5-.56 2.31-.56c1.41 0 2.6.52 3.59 1.55.99 1.04 1.48 2.37 1.48 4.01 0 1.08-.23 2.08-.7 3.01s-1.1 1.63-1.92 2.13-1.73.74-2.77.74c-1.76 0-3.19-.65-4.3-1.94s-1.66-3.42-1.66-6.39c0-3.32.61-5.73 1.84-7.24 1.07-1.31 2.51-1.97 4.32-1.97 1.35 0 2.46.38 3.32 1.14s1.38 1.8 1.55 3.14zm-8.61 7.4c0 .73.15 1.42.46 2.09s.74 1.17 1.29 1.52 1.14.52 1.75.52c.89 0 1.66-.36 2.3-1.08s.96-1.7.96-2.93-.32-2.12-.95-2.81-1.43-1.03-2.39-1.03-1.76.34-2.43 1.03-1 1.58-1 2.69z"/></g></svg>